<svg width="907" height="191" viewBox="0 0 907 191" fill="none" xmlns="http://www.w3.org/2000/svg">
<path d="M186.676 153.786L153 74.0864H176.573L194.533 120.11L213.616 74.0864H237.189L202.391 153.786H186.676Z" fill="#00446B"/>
<path d="M378.083 74.0864H359L388.186 154.908H401.656L417.371 110.007L434.209 154.908H448.802L476.865 74.0864H455.537L440.944 116.742L425.229 74.0864H410.636L394.921 116.742L378.083 74.0864Z" fill="#00446B"/>
<rect x="247.245" y="74.0864" width="20.2054" height="80.8218" fill="#00446B"/>
<circle cx="257.348" cy="53.881" r="12.3478" fill="#00446B"/>
<rect x="895.121" y="44.9009" width="11.2252" height="114.498" fill="#00446B"/>
<rect x="571.834" y="74.0864" width="11.2252" height="85.3119" fill="#00446B"/>
<circle cx="577.447" cy="52.7586" r="7.85767" fill="#00446B"/>
<rect x="672.862" y="74.0864" width="11.2252" height="85.3119" fill="#00446B"/>
<path d="M682.809 115.952C682.809 138.89 664.214 157.485 641.276 157.485C618.337 157.485 599.742 138.89 599.742 115.952C599.742 93.0136 618.337 74.4185 641.276 74.4185C664.214 74.4185 682.809 93.0136 682.809 115.952ZM609.646 115.952C609.646 133.42 623.807 147.582 641.276 147.582C658.744 147.582 672.905 133.42 672.905 115.952C672.905 98.4833 658.744 84.3222 641.276 84.3222C623.807 84.3222 609.646 98.4833 609.646 115.952Z" fill="#00446B"/>
<path d="M602.602 165.544C605.261 173.381 611.117 180.189 619.151 184.779C627.185 189.37 636.887 191.453 646.566 190.666C656.245 189.879 665.288 186.271 672.118 180.471C678.948 174.672 683.133 167.048 683.943 158.929L672.905 158.156C672.311 164.11 669.242 169.7 664.234 173.953C659.225 178.206 652.594 180.852 645.496 181.429C638.398 182.007 631.284 180.479 625.392 177.112C619.501 173.746 615.206 168.754 613.257 163.007L602.602 165.544Z" fill="#00446B"/>
<rect x="863.691" y="74.0864" width="11.2252" height="85.3119" fill="#00446B"/>
<path d="M874.809 115.952C874.809 138.89 856.214 157.485 833.276 157.485C810.337 157.485 791.742 138.89 791.742 115.952C791.742 93.0136 810.337 74.4185 833.276 74.4185C856.214 74.4185 874.809 93.0136 874.809 115.952ZM802.793 115.952C802.793 132.787 816.441 146.434 833.276 146.434C850.11 146.434 863.758 132.787 863.758 115.952C863.758 99.117 850.11 85.4697 833.276 85.4697C816.441 85.4697 802.793 99.117 802.793 115.952Z" fill="#00446B"/>
<rect x="703.928" y="78.8833" width="11.907" height="80.372" fill="#00446B"/>
<rect x="761.975" y="111.627" width="11.907" height="47.6279" fill="#00446B"/>
<path d="M773.882 112.372C773.882 102.701 770.197 93.4257 763.637 86.5871C757.078 79.7486 748.181 75.9067 738.905 75.9067C729.629 75.9067 720.732 79.7486 714.173 86.5871C707.613 93.4256 703.928 102.701 703.928 112.372L715.775 112.372C715.775 105.976 718.212 99.843 722.55 95.3207C726.887 90.7985 732.771 88.2579 738.905 88.2579C745.039 88.2579 750.922 90.7985 755.26 95.3207C759.598 99.843 762.035 105.976 762.035 112.372H773.882Z" fill="#00446B"/>
<path d="M623.47 44.901C623.47 39.0045 622.309 33.1658 620.053 27.7181C617.796 22.2705 614.489 17.3206 610.319 13.1512C606.15 8.98175 601.2 5.67437 595.752 3.41788C590.305 1.1614 584.466 -2.57743e-07 578.569 0C572.673 2.57743e-07 566.834 1.1614 561.387 3.41788C555.939 5.67437 550.989 8.98175 546.82 13.1512C542.65 17.3206 539.343 22.2705 537.086 27.7181C534.83 33.1658 533.668 39.0045 533.668 44.901L539.804 44.901C539.804 39.8102 540.807 34.7694 542.755 30.0661C544.703 25.3629 547.559 21.0894 551.158 17.4898C554.758 13.8901 559.031 11.0346 563.735 9.08649C568.438 7.13835 573.479 6.13565 578.569 6.13565C583.66 6.13565 588.701 7.13835 593.404 9.08649C598.108 11.0346 602.381 13.8901 605.981 17.4898C609.58 21.0894 612.436 25.3629 614.384 30.0661C616.332 34.7694 617.335 39.8102 617.335 44.901H623.47Z" fill="#00446B"/>
<path d="M601.02 51.636C601.02 48.6878 600.439 45.7684 599.311 43.0446C598.183 40.3208 596.529 37.8459 594.445 35.7611C592.36 33.6764 589.885 32.0227 587.161 30.8945C584.437 29.7662 581.518 29.1855 578.57 29.1855C575.621 29.1855 572.702 29.7662 569.978 30.8945C567.254 32.0227 564.779 33.6764 562.695 35.7611C560.61 37.8459 558.956 40.3208 557.828 43.0446C556.7 45.7684 556.119 48.6878 556.119 51.636L559.187 51.636C559.187 49.0907 559.688 46.5702 560.662 44.2186C561.636 41.867 563.064 39.7303 564.864 37.9304C566.664 36.1306 568.801 34.7029 571.152 33.7288C573.504 32.7547 576.024 32.2534 578.57 32.2534C581.115 32.2534 583.635 32.7547 585.987 33.7288C588.339 34.7029 590.475 36.1306 592.275 37.9304C594.075 39.7303 595.503 41.867 596.477 44.2186C597.451 46.5702 597.952 49.0907 597.952 51.636H601.02Z" fill="#00446B"/>
<rect x="511.143" y="83.0308" width="47.5195" height="12.8451" transform="rotate(42.8956 511.143 83.0308)" fill="#00446B"/>
<rect x="503.836" y="139.176" width="11.68" height="12.8451" transform="rotate(45.0925 503.836 139.176)" fill="#00446B"/>
<rect x="541.819" y="57.5498" width="11.6825" height="12.4883" transform="rotate(45.0925 541.819 57.5498)" fill="#00446B"/>
<path d="M541.876 57.5789C536.348 52.4301 529.155 49.5223 521.881 49.495C514.606 49.4678 507.845 52.3233 503.086 57.4335C498.326 62.5438 495.958 69.49 496.501 76.7442C497.045 83.9984 500.456 90.9664 505.984 96.1151L514.495 86.9773C511.588 84.2703 509.795 80.6069 509.509 76.793C509.223 72.9791 510.469 69.327 512.971 66.6403C515.473 63.9536 519.028 62.4523 522.852 62.4666C526.677 62.4809 530.458 64.0097 533.365 66.7167L541.876 57.5789Z" fill="#00446B"/>
<path d="M502.793 156.41C508.308 161.747 515.78 164.61 523.566 164.369C531.351 164.127 538.813 160.801 544.309 155.122C549.804 149.444 552.885 141.877 552.871 134.088C552.858 126.299 549.752 118.924 544.238 113.587L535.204 122.921C538.315 125.932 540.067 130.091 540.074 134.485C540.082 138.879 538.344 143.147 535.244 146.35C532.144 149.553 527.935 151.429 523.544 151.565C519.152 151.701 514.937 150.087 511.827 147.076L502.793 156.41Z" fill="#00446B"/>
<rect y="44.9878" width="20.3365" height="109.078" fill="#00446B"/>
<path d="M22.357 103.335L40.6445 94.4387L69.7012 154.169L45.2948 154.168L22.357 103.335Z" fill="#00446B"/>
<path d="M36.9754 104.149C44.8207 104.149 52.3445 101.032 57.8919 95.4847C63.4394 89.9373 66.5559 82.4134 66.5559 74.5682C66.5559 66.723 63.4394 59.1991 57.892 53.6517C52.3446 48.1043 44.8207 44.9878 36.9754 44.9878L36.9754 65.348C39.4208 65.348 41.766 66.3195 43.4951 68.0486C45.2242 69.7777 46.1956 72.1229 46.1956 74.5682C46.1956 77.0136 45.2242 79.3587 43.4951 81.0879C41.766 82.817 39.4208 83.7884 36.9754 83.7884L36.9754 104.149Z" fill="#00446B"/>
<rect y="44.9878" width="36.9755" height="20.3365" fill="#00446B"/>
<rect y="83.8125" width="36.9755" height="20.3365" fill="#00446B"/>
<path d="M147.655 139.653C141.711 147.525 133.227 152.988 123.712 155.069C114.196 157.151 104.267 155.716 95.69 151.019C87.113 146.323 80.4448 138.67 76.8716 129.422C73.2984 120.174 73.052 109.931 76.1763 100.515C79.3006 91.0991 85.5929 83.1208 93.9338 77.9997C102.275 72.8787 112.123 70.947 121.727 72.5483C131.331 74.1497 140.067 79.1802 146.382 86.7448C152.697 94.3095 156.18 103.918 156.213 113.86L139.194 113.918C139.175 108.092 137.133 102.462 133.433 98.0291C129.733 93.5964 124.614 90.6486 118.986 89.7103C113.358 88.772 107.587 89.9039 102.7 92.9047C97.8122 95.9055 94.1251 100.581 92.2943 106.098C90.4635 111.616 90.6079 117.618 92.7017 123.037C94.7955 128.456 98.7029 132.941 103.729 135.692C108.755 138.444 114.573 139.285 120.149 138.066C125.725 136.846 130.696 133.645 134.179 129.032L147.655 139.653Z" fill="#00446B"/>
<path d="M81.1489 102.383H154.426L156.213 116.681H81.1489V102.383Z" fill="#00446B"/>
<rect x="154.425" y="113.106" width="1.78723" height="3.57447" fill="#084D74"/>
<path d="M350.655 139.653C344.711 147.525 336.227 152.988 326.712 155.069C317.196 157.151 307.267 155.716 298.69 151.019C290.113 146.323 283.445 138.67 279.872 129.422C276.298 120.174 276.052 109.931 279.176 100.515C282.301 91.0991 288.593 83.1208 296.934 77.9997C305.275 72.8787 315.123 70.947 324.727 72.5483C334.331 74.1497 343.067 79.1802 349.382 86.7448C355.697 94.3095 359.18 103.918 359.213 113.86L342.194 113.918C342.175 108.092 340.133 102.462 336.433 98.0291C332.733 93.5964 327.614 90.6486 321.986 89.7103C316.358 88.772 310.587 89.9039 305.7 92.9047C300.812 95.9055 297.125 100.581 295.294 106.098C293.464 111.616 293.608 117.618 295.702 123.037C297.795 128.456 301.703 132.941 306.729 135.692C311.755 138.444 317.573 139.285 323.149 138.066C328.725 136.846 333.696 133.645 337.179 129.032L350.655 139.653Z" fill="#00446B"/>
<path d="M284.149 102.383H357.426L359.213 116.681H284.149V102.383Z" fill="#00446B"/>
<rect x="357.425" y="113.106" width="1.78723" height="3.57447" fill="#00446B"/>
</svg>
